<?xml version="1.0" standalone="no"?>
<!DOCTYPE svg PUBLIC "-//W3C//DTD SVG 20010904//EN"
 "http://www.w3.org/TR/2001/REC-SVG-20010904/DTD/svg10.dtd">
<svg version="1.0" xmlns="http://www.w3.org/2000/svg"
 width="2336.000000pt" height="1688.000000pt" viewBox="0 0 2336.000000 1688.000000"
 preserveAspectRatio="xMidYMid meet">

<g transform="translate(0.000000,1688.000000) scale(0.100000,-0.100000)"
fill="#000000" stroke="none">
<path d="M10305 15985 c-264 -20 -588 -59 -755 -90 -41 -8 -127 -24 -190 -35
-451 -84 -1002 -253 -1465 -450 -315 -133 -730 -347 -945 -486 -19 -12 -47
-28 -62 -35 -16 -7 -28 -16 -28 -21 0 -4 -4 -8 -10 -8 -28 0 -519 -349 -705
-501 -83 -68 -224 -187 -241 -204 -12 -11 -54 -49 -95 -84 -152 -133 -501
-494 -659 -681 -30 -36 -57 -67 -60 -70 -5 -5 -83 -99 -107 -130 -6 -8 -31
-40 -55 -70 -24 -30 -83 -109 -131 -175 -49 -66 -94 -127 -100 -136 -7 -8 -16
-23 -22 -31 -5 -9 -41 -63 -80 -120 -38 -56 -75 -112 -81 -123 -6 -11 -28 -47
-49 -80 -119 -184 -340 -599 -442 -831 -95 -213 -118 -269 -177 -429 -21 -55
-42 -111 -47 -123 -70 -172 -253 -822 -283 -1007 -4 -22 -13 -71 -21 -110 -61
-300 -102 -619 -126 -995 -14 -217 -7 -857 10 -1025 7 -60 19 -173 27 -250 38
-363 129 -811 250 -1230 57 -196 64 -219 144 -445 125 -350 300 -744 463
-1040 13 -25 39 -72 57 -105 18 -33 39 -67 46 -76 8 -8 14 -18 14 -21 0 -21
249 -410 345 -538 39 -52 91 -124 116 -160 24 -36 50 -72 58 -80 8 -8 56 -67
106 -130 262 -328 669 -744 990 -1010 28 -23 59 -50 70 -59 30 -24 148 -121
165 -134 8 -7 31 -23 50 -37 19 -13 37 -27 40 -30 3 -3 32 -25 65 -50 33 -25
62 -47 65 -51 8 -8 348 -240 405 -275 28 -17 79 -50 115 -72 36 -23 90 -55
120 -72 30 -16 80 -44 110 -61 155 -89 396 -208 665 -328 199 -89 645 -248
870 -310 245 -67 336 -91 385 -101 30 -5 96 -19 145 -30 224 -49 634 -110 935
-137 270 -25 903 -25 1221 0 476 36 989 126 1419 247 328 93 650 204 895 310
322 139 803 386 936 481 15 10 30 19 33 19 9 0 324 209 410 272 149 109 223
164 276 206 30 25 73 59 94 76 267 212 613 537 846 795 47 52 94 104 105 115
12 12 86 100 165 196 79 96 146 177 150 180 3 3 27 35 53 72 26 36 53 73 59
80 7 8 18 21 23 30 6 9 41 60 79 115 131 185 156 222 156 232 0 5 6 16 13 23
58 60 333 558 460 833 218 474 410 1038 502 1475 14 69 30 141 35 160 20 74
80 453 99 625 38 332 51 562 51 870 0 571 -49 1062 -157 1570 -14 66 -31 147
-38 180 -17 87 -109 419 -147 535 -62 190 -158 455 -189 525 -4 11 -17 43 -28
70 -10 28 -30 75 -44 105 -13 30 -37 84 -53 120 -34 78 -199 409 -249 500 -57
103 -186 321 -215 365 -15 22 -67 101 -116 175 -49 74 -92 137 -95 140 -3 3
-24 32 -47 65 -77 110 -106 150 -166 226 -34 41 -72 91 -86 109 -14 19 -41 52
-60 75 -19 23 -51 61 -70 85 -19 24 -44 53 -55 65 -11 11 -49 54 -85 95 -68
80 -471 485 -555 560 -47 42 -127 112 -235 205 -26 22 -84 69 -130 105 -46 36
-88 70 -94 75 -6 6 -28 21 -48 35 -21 14 -38 28 -38 33 0 4 -6 7 -14 7 -8 0
-16 3 -18 8 -7 16 -204 153 -443 307 -129 84 -414 248 -503 289 -34 16 -62 33
-62 38 0 4 -5 8 -10 8 -6 0 -74 31 -153 69 -211 102 -384 177 -582 254 -111
43 -465 161 -560 187 -539 149 -903 219 -1415 271 -260 27 -947 35 -1215 14z
m915 -455 c543 -31 1168 -142 1614 -284 23 -8 75 -24 116 -36 183 -55 467
-165 790 -306 75 -33 408 -201 460 -233 19 -11 42 -24 50 -28 21 -10 293 -171
305 -181 6 -4 62 -41 125 -82 63 -41 117 -77 120 -80 3 -4 43 -33 90 -65 102
-71 67 -44 285 -217 99 -78 187 -149 195 -158 8 -9 44 -41 80 -71 35 -30 79
-67 96 -84 243 -235 433 -428 509 -520 28 -33 59 -69 70 -81 90 -95 355 -435
355 -455 0 -5 3 -9 8 -9 4 0 18 -17 32 -38 14 -20 30 -42 36 -49 7 -7 43 -61
80 -120 38 -59 71 -110 75 -113 6 -5 89 -138 89 -143 0 -2 36 -64 81 -138 142
-236 352 -679 484 -1019 33 -84 98 -268 105 -295 4 -16 25 -82 45 -145 65
-200 179 -672 201 -830 3 -25 12 -81 20 -125 28 -162 64 -498 80 -760 15 -234
15 -307 5 -550 -11 -270 -15 -321 -47 -595 -103 -890 -404 -1826 -831 -2579
-106 -186 -256 -425 -359 -570 -30 -42 -60 -84 -67 -95 -113 -170 -434 -562
-616 -751 -160 -166 -350 -349 -461 -445 -41 -36 -81 -71 -88 -78 -35 -33
-230 -188 -342 -273 -142 -107 -501 -349 -519 -349 -6 0 -11 -4 -11 -10 0 -5
-5 -10 -10 -10 -6 0 -29 -12 -53 -27 -46 -30 -53 -34 -142 -83 -33 -17 -64
-36 -70 -40 -18 -14 -298 -156 -425 -215 -283 -132 -700 -290 -965 -365 -297
-84 -344 -96 -455 -120 -52 -12 -124 -27 -160 -35 -380 -82 -789 -124 -1270
-132 -489 -7 -748 12 -1291 96 -157 25 -447 90 -709 161 -95 26 -473 148 -520
168 -57 24 -71 30 -160 63 -297 111 -724 322 -1055 522 -48 29 -452 298 -475
316 -57 45 -121 91 -126 91 -4 0 -14 8 -23 18 -9 10 -51 43 -93 75 -42 31 -83
63 -90 70 -7 7 -42 37 -78 67 -194 164 -451 412 -623 600 -38 41 -83 91 -101
110 -76 83 -253 299 -337 412 -132 179 -166 226 -247 348 -80 119 -231 364
-285 460 -110 201 -307 594 -307 615 0 4 -9 25 -19 48 -38 84 -134 324 -161
402 -84 243 -117 347 -157 495 -123 456 -192 851 -235 1335 -19 218 -16 858 5
1100 47 534 148 1040 313 1560 25 77 53 163 64 190 10 28 39 104 64 170 49
133 116 293 166 400 73 157 161 335 206 415 26 47 63 114 82 150 19 36 54 96
78 133 24 37 44 70 44 73 0 3 5 10 10 17 6 7 48 71 93 142 74 115 289 422 306
435 4 3 22 25 41 50 19 25 42 54 52 65 9 11 56 67 103 125 256 308 629 674
955 937 74 60 321 247 356 270 11 7 53 37 95 66 74 53 378 244 449 283 19 10
37 22 40 25 3 3 38 22 77 42 40 21 96 51 125 67 65 38 292 148 413 202 50 22
113 50 140 62 141 65 642 241 795 280 30 7 87 23 125 34 313 94 906 192 1325
221 177 12 665 13 860 1z"/>
<path d="M7582 13527 c-5 -6 -17 -28 -27 -47 -10 -19 -21 -37 -24 -40 -3 -3
-13 -19 -22 -35 -8 -17 -42 -75 -74 -130 -32 -55 -67 -116 -77 -135 -11 -19
-49 -81 -85 -137 -41 -64 -67 -117 -69 -140 -3 -21 7 -94 21 -163 70 -338 165
-857 209 -1135 14 -88 35 -221 46 -295 12 -74 30 -196 40 -270 11 -74 26 -182
35 -240 54 -364 119 -1011 136 -1353 14 -284 6 -741 -15 -887 -44 -305 -116
-429 -336 -575 -220 -148 -520 -252 -855 -299 -405 -56 -802 -14 -1166 124
-368 139 -529 366 -532 745 -1 279 73 600 227 978 20 48 36 98 36 110 -1 20
-4 19 -31 -13 -141 -160 -340 -481 -432 -696 -24 -56 -88 -241 -98 -284 -132
-537 -26 -1001 306 -1335 235 -236 582 -390 1005 -446 127 -17 373 -17 490 0
229 33 442 105 645 221 63 35 236 149 245 160 3 3 15 13 27 21 97 66 396 363
483 479 14 18 30 38 35 44 6 6 32 40 58 76 27 36 54 72 61 81 26 31 108 172
151 257 97 194 110 302 101 837 -6 440 -20 664 -85 1380 -6 61 -20 216 -31
345 -11 129 -24 285 -30 345 -23 253 -32 489 -27 683 5 211 9 245 67 485 21
87 26 104 60 182 10 22 28 65 40 95 13 30 28 61 33 68 11 14 3 26 -71 96 -105
99 -240 313 -307 486 -20 52 -42 109 -50 125 -7 17 -21 53 -30 80 -10 28 -21
55 -25 60 -3 6 -13 29 -20 53 -15 49 -23 57 -38 39z"/>
<path d="M11517 12533 c-8 -32 -29 -110 -46 -173 -55 -205 -227 -942 -271
-1165 -10 -49 -28 -128 -39 -175 -11 -47 -34 -148 -51 -225 -127 -592 -181
-802 -250 -960 -10 -22 -35 -83 -56 -135 -64 -160 -233 -488 -256 -498 -5 -2
-8 -8 -8 -14 0 -18 -201 -309 -279 -404 -14 -17 -33 -40 -41 -50 -128 -163
-380 -421 -570 -584 -14 -12 -37 -32 -51 -45 -45 -39 -339 -259 -419 -312
-504 -337 -973 -559 -1642 -778 -98 -32 -178 -62 -178 -66 0 -9 71 -24 200
-40 126 -17 591 -17 750 -1 219 23 455 68 665 128 33 9 80 22 105 29 144 40
452 174 632 276 279 156 562 382 738 589 30 36 57 67 60 70 3 3 27 34 53 70
27 36 55 73 63 83 8 9 14 20 14 24 0 3 10 20 23 37 27 36 166 309 196 383 11
28 29 70 39 94 130 286 340 992 456 1529 108 498 134 600 156 600 4 0 10 -123
14 -272 28 -1137 74 -1654 182 -2077 141 -553 390 -856 824 -1004 133 -46 263
-62 490 -61 219 1 378 17 605 60 391 74 715 164 1240 341 760 257 783 264 970
287 252 32 432 40 621 27 99 -6 187 -11 196 -11 11 0 43 38 85 103 38 56 70
104 74 107 3 3 16 23 29 45 13 22 77 120 142 219 65 98 118 182 118 186 0 5 4
10 8 12 8 3 92 134 92 143 0 3 -58 5 -129 5 -370 0 -878 65 -1051 135 -19 7
-66 26 -105 41 -38 14 -126 55 -195 89 -130 65 -172 87 -330 175 -52 29 -124
69 -160 88 -36 19 -85 46 -110 60 -268 149 -453 231 -675 302 -175 56 -487 85
-631 61 -235 -41 -437 -166 -614 -381 -25 -30 -47 -57 -50 -60 -3 -3 -17 -21
-30 -40 -13 -19 -27 -37 -31 -40 -9 -7 -90 -136 -126 -200 -144 -258 -172
-316 -224 -460 -20 -58 -41 -114 -45 -125 -5 -13 8 -6 41 23 284 249 527 391
745 438 84 18 316 18 440 0 167 -24 424 -98 610 -176 25 -10 104 -42 175 -70
128 -50 327 -149 332 -166 3 -9 -174 -125 -277 -182 -75 -42 -264 -118 -368
-148 -321 -92 -594 -125 -1062 -125 -457 -1 -689 25 -816 89 -273 139 -452
553 -528 1222 -52 453 -63 615 -76 1135 -25 932 -46 1265 -96 1505 -53 251
-83 335 -142 395 -32 32 -107 75 -132 75 -4 0 -14 -26 -23 -57z"/>
<path d="M8217 11983 c-10 -106 -8 -475 4 -624 23 -301 90 -448 256 -565 90
-62 191 -109 447 -206 341 -129 477 -211 641 -387 186 -199 363 -536 510 -966
75 -221 84 -238 100 -197 4 9 9 127 12 262 6 251 -5 391 -43 595 -54 291 -197
666 -340 892 -63 99 -108 168 -114 173 -3 3 -25 32 -49 65 -127 172 -335 384
-504 515 -107 83 -265 194 -322 226 -11 6 -43 25 -71 41 -109 65 -362 191
-424 211 -36 11 -72 23 -81 27 -13 5 -17 -5 -22 -62z"/>
<path d="M9615 5918 c-4 -13 -50 -131 -102 -263 -109 -278 -125 -318 -188
-480 -60 -155 -74 -193 -93 -235 -9 -19 -23 -55 -32 -80 -47 -125 -154 -400
-184 -473 -47 -113 -79 -214 -71 -227 7 -11 66 -13 113 -4 29 6 33 14 72 118
22 61 60 158 83 216 l43 105 254 2 c262 2 330 -2 330 -18 0 -10 154 -391 168
-418 6 -11 41 -13 177 -12 93 1 172 4 174 7 4 3 -93 247 -141 353 -10 24 -28
67 -39 95 -11 28 -24 60 -29 71 -10 23 -24 55 -85 205 -24 58 -74 182 -113
275 -38 94 -86 211 -107 260 -20 50 -45 109 -56 132 -10 24 -19 46 -19 49 0 3
-6 20 -14 37 -34 76 -116 278 -116 286 0 21 -19 20 -25 -1z m-15 -738 c28 -69
56 -133 61 -142 4 -9 34 -79 65 -155 31 -76 58 -144 61 -151 4 -10 -40 -12
-231 -10 -130 2 -236 6 -236 10 0 3 13 39 29 80 32 81 67 172 113 293 16 44
36 96 44 115 7 19 18 48 24 64 6 16 12 27 14 25 2 -2 27 -60 56 -129z"/>
<path d="M12307 5934 c-5 -9 -33 -79 -134 -339 -30 -77 -65 -165 -77 -195 -13
-30 -38 -91 -55 -135 -65 -170 -202 -521 -211 -540 -5 -11 -28 -69 -51 -130
-114 -296 -158 -400 -170 -400 -7 0 -18 20 -24 45 l-11 45 -84 2 c-47 2 -195
4 -330 5 l-245 3 -5 773 c-4 630 -7 774 -18 781 -8 5 -67 11 -133 15 -90 5
-126 4 -146 -6 l-28 -13 -3 -853 -2 -853 487 7 c361 5 493 10 506 19 14 10 28
10 67 -2 27 -8 66 -13 87 -11 46 4 41 -5 139 253 l72 190 287 0 287 0 40 -95
c22 -52 63 -149 90 -215 28 -66 53 -123 57 -126 11 -12 351 -21 351 -9 0 10
-71 187 -108 270 -15 34 -76 181 -148 360 -19 47 -41 99 -48 115 -8 17 -30 71
-50 120 -20 50 -41 99 -46 110 -35 77 -60 137 -60 142 0 4 -22 59 -49 122 -82
194 -203 484 -216 520 -7 18 -15 30 -18 25z m-23 -766 c93 -223 149 -356 166
-393 10 -22 16 -43 13 -47 -4 -8 -463 -12 -463 -4 0 2 16 46 36 97 19 52 46
123 59 159 77 214 108 280 133 280 13 0 28 -25 56 -92z"/>
<path d="M7370 5012 l0 -860 154 -7 c85 -4 159 -4 165 -1 8 5 11 130 11 412
l0 404 343 -2 342 -3 3 -402 2 -403 165 0 165 0 0 839 c0 462 -3 846 -6 855
-5 14 -29 16 -165 16 l-159 0 0 -380 0 -380 -345 0 -345 0 0 374 c0 206 -3
377 -7 379 -5 3 -79 8 -165 12 l-158 8 0 -861z"/>
<path d="M13260 5005 l0 -855 489 0 c550 0 521 -4 521 73 0 23 -4 48 -8 55 -7
10 -83 13 -338 15 l-329 2 -6 690 c-3 380 -7 732 -8 783 l-1 92 -160 0 -160 0
0 -855z"/>
</g>
</svg>
